<svg width="96" height="96" viewBox="0 0 96 96" fill="none" xmlns="http://www.w3.org/2000/svg">
<path d="M80 26.6667V69.3333C80 75.2 75.2 80 69.3333 80H26.6667C20.8 80 16 75.2 16 69.3333V26.6667C16 20.8 20.8 16 26.6667 16H69.3333C75.2 16 80 20.8 80 26.6667Z" fill="#FFC8D1"/>
<path d="M80 59.2001V69.3334C80 75.2001 75.2 80.0001 69.3333 80.0001H26.6667C20.8 80.0001 16 75.2001 16 69.3334V59.2001C16 57.6001 17.3333 56.2667 18.9333 56.2667H34.6667C36.2667 56.2667 37.6 57.6001 37.6 59.2001V60.5334C37.6 62.1334 38.9333 63.4667 40.5333 63.4667H55.7333C57.3333 63.4667 58.6667 62.1334 58.6667 60.5334V59.2001C58.6667 57.6001 60 56.2667 61.6 56.2667H77.3333C78.6667 56.2667 80 57.6001 80 59.2001Z" fill="#FF2549"/>
<path d="M44 43.7334L39.7333 39.4667C38.6667 38.4 38.6667 36.5334 39.7333 35.4667C40.8 34.4 42.6667 34.4 43.7333 35.4667L45.8667 37.6L52.2667 31.2C53.3334 30.1334 55.2 30.1334 56.2667 31.2C57.3334 32.2667 57.3334 34.1334 56.2667 35.2L48 43.7334C46.9334 44.8 45.0667 44.8 44 43.7334Z" fill="#FF2549"/>
</svg>
