<svg width="96" height="96" viewBox="0 0 96 96" fill="none" xmlns="http://www.w3.org/2000/svg">
<path d="M75.2 53.0526H20.8C20.3534 53.0525 19.9113 53.1395 19.4987 53.3088C19.0861 53.478 18.7113 53.7261 18.3955 54.0389C18.0798 54.3518 17.8294 54.7231 17.6585 55.1319C17.4877 55.5406 17.3998 55.9787 17.4 56.421V73.2631C17.402 75.0492 18.1191 76.7616 19.3939 78.0245C20.6687 79.2875 22.3971 79.9979 24.2 80H71.8C73.6028 79.9979 75.3312 79.2875 76.606 78.0245C77.8808 76.7616 78.5979 75.0492 78.6 73.2631V56.421C78.6001 55.9787 78.5122 55.5406 78.3414 55.1319C78.1706 54.7231 77.9201 54.3518 77.6044 54.0389C77.2886 53.7261 76.9138 53.478 76.5012 53.3088C76.0887 53.1395 75.6465 53.0525 75.2 53.0526Z" fill="#FFC8D1"/>
<path d="M75.2 26.1052H20.8C17.0445 26.1052 14 29.1214 14 32.8421V53.0526C14 56.7732 17.0445 59.7894 20.8 59.7894H75.2C78.9555 59.7894 82 56.7732 82 53.0526V32.8421C82 29.1214 78.9555 26.1052 75.2 26.1052Z" fill="#FFC8D1"/>
<path d="M75.2 59.7894H20.8C18.9972 59.7871 17.269 59.0766 15.9943 57.8137C14.7195 56.5508 14.0023 54.8386 14 53.0526V32.8421C14.0023 31.0561 14.7195 29.3439 15.9943 28.081C17.269 26.8181 18.9972 26.1075 20.8 26.1052H75.2C77.0028 26.1075 78.731 26.8181 80.0057 28.081C81.2805 29.3439 81.9977 31.0561 82 32.8421V53.0526C81.9977 54.8386 81.2805 56.5508 80.0057 57.8137C78.731 59.0766 77.0028 59.7871 75.2 59.7894ZM20.8 32.8421V53.0526H75.2068L75.2 32.8421H20.8Z" fill="#FF2549"/>
<path d="M65 32.8421H31C30.5534 32.8424 30.1112 32.7554 29.6985 32.5862C29.2859 32.417 28.911 32.1689 28.5952 31.8561C28.2795 31.5432 28.029 31.1718 27.8583 30.763C27.6875 30.3542 27.5997 29.9161 27.6 29.4737V21.0526C27.6014 19.713 28.1392 18.4287 29.0953 17.4815C30.0515 16.5343 31.3478 16.0015 32.7 16H63.3C64.6521 16.0015 65.9485 16.5343 66.9046 17.4815C67.8607 18.4287 68.3985 19.713 68.4 21.0526V29.4737C68.4002 29.9161 68.3124 30.3542 68.1417 30.763C67.9709 31.1718 67.7205 31.5432 67.4047 31.8561C67.0889 32.1689 66.714 32.417 66.3014 32.5862C65.8888 32.7554 65.4465 32.8424 65 32.8421ZM34.4 26.1053H61.6V22.7368H34.4V26.1053ZM71.8 80H24.2C22.3972 79.9977 20.669 79.2872 19.3942 78.0243C18.1195 76.7614 17.4023 75.0492 17.4 73.2632V56.4211C17.3997 55.9786 17.4875 55.5405 17.6583 55.1317C17.829 54.7229 18.0795 54.3515 18.3952 54.0387C18.711 53.7258 19.0859 53.4777 19.4985 53.3085C19.9112 53.1393 20.3534 53.0524 20.8 53.0526H75.2C75.6465 53.0524 76.0888 53.1393 76.5014 53.3085C76.914 53.4777 77.2889 53.7258 77.6047 54.0387C77.9205 54.3515 78.1709 54.7229 78.3417 55.1317C78.5124 55.5405 78.6002 55.9786 78.6 56.4211V73.2632C78.5976 75.0492 77.8804 76.7614 76.6057 78.0243C75.331 79.2872 73.6027 79.9977 71.8 80ZM24.2 59.7895V73.2632H71.8V59.7895H24.2Z" fill="#FF2549"/>
<path d="M36.1 63.1579C35.6534 63.1581 35.2112 63.0712 34.7986 62.902C34.386 62.7328 34.0111 62.4847 33.6953 62.1719C33.3795 61.859 33.1291 61.4876 32.9583 61.0788C32.7875 60.67 32.6998 60.2319 32.7 59.7895V53.0526C32.7 52.1593 33.0582 51.3025 33.6959 50.6708C34.3335 50.0391 35.1983 49.6842 36.1 49.6842C37.0017 49.6842 37.8666 50.0391 38.5042 50.6708C39.1418 51.3025 39.5 52.1593 39.5 53.0526V59.7895C39.5003 60.2319 39.4125 60.67 39.2417 61.0788C39.0709 61.4876 38.8205 61.859 38.5047 62.1719C38.189 62.4847 37.8141 62.7328 37.4014 62.902C36.9888 63.0712 36.5466 63.1581 36.1 63.1579ZM59.9 63.1579C59.4534 63.1581 59.0112 63.0712 58.5986 62.902C58.186 62.7328 57.8111 62.4847 57.4953 62.1719C57.1795 61.859 56.9291 61.4876 56.7583 61.0788C56.5875 60.67 56.4998 60.2319 56.5 59.7895V53.0526C56.5 52.1593 56.8582 51.3025 57.4958 50.6708C58.1335 50.0391 58.9983 49.6842 59.9 49.6842C60.8017 49.6842 61.6666 50.0391 62.3042 50.6708C62.9418 51.3025 63.3 52.1593 63.3 53.0526V59.7895C63.3003 60.2319 63.2125 60.67 63.0417 61.0788C62.8709 61.4876 62.6205 61.859 62.3047 62.1719C61.989 62.4847 61.6141 62.7328 61.2014 62.902C60.7888 63.0712 60.3466 63.1581 59.9 63.1579Z" fill="#FF667F"/>
</svg>
