<svg width="96" height="96" viewBox="0 0 96 96" fill="none" xmlns="http://www.w3.org/2000/svg">
<path d="M77.8198 41.7623L72.2523 39.9064C71.8737 38.7554 71.4139 37.6326 70.8763 36.5467L73.5961 31.3311C73.8921 30.7312 73.9927 30.0535 73.8835 29.3935C73.7744 28.7334 73.4612 28.1242 72.9878 27.6514L68.3481 23.1077C67.8865 22.6186 67.2826 22.2873 66.6221 22.161C65.9615 22.0346 65.2779 22.1196 64.6684 22.4039L59.4529 25.0277C58.3669 24.4901 57.2441 24.0303 56.0931 23.6517L54.3972 18.1801C54.1746 17.5178 53.7413 16.9466 53.1635 16.5538C52.5857 16.1609 51.8952 15.9679 51.1975 16.0044H44.798C44.1272 16.0026 43.4728 16.2118 42.9274 16.6022C42.3819 16.9926 41.9729 17.5446 41.7582 18.1801L39.9024 23.7477C38.7513 24.1263 37.6285 24.586 36.5426 25.1236L31.327 22.4038C30.727 22.1078 30.0493 22.0073 29.3893 22.1164C28.7292 22.2255 28.12 22.5387 27.6472 23.0121L23.1037 27.6518C22.6146 28.1133 22.2833 28.7173 22.157 29.3778C22.0306 30.0384 22.1155 30.722 22.3998 31.3315L25.0237 36.5471C24.4861 37.633 24.0262 38.7557 23.6476 39.9068L18.0802 41.7627C17.4625 41.9934 16.9312 42.4092 16.559 42.9533C16.1867 43.4974 15.9916 44.1433 16.0003 44.8025V51.2019C15.9985 51.8728 16.2076 52.5272 16.5981 53.0727C16.9885 53.6182 17.5406 54.0271 18.1761 54.2418L23.7437 56.0976C24.1222 57.2487 24.582 58.3715 25.1195 59.4574L22.3998 64.6729C22.1038 65.2729 22.0033 65.9505 22.1124 66.6106C22.2215 67.2706 22.5348 67.8799 23.0081 68.3527L27.5518 72.8963C28.0202 73.4064 28.6415 73.7508 29.3223 73.8777C30.0031 74.0047 30.7067 73.9073 31.3274 73.6002L36.5432 70.9764C37.6291 71.5139 38.7518 71.9737 39.9029 72.3522L41.7587 77.9198C41.9894 78.5373 42.4052 79.0686 42.9493 79.4409C43.4934 79.8132 44.1392 80.0083 44.7984 79.9996H51.198C51.8687 80.0014 52.5232 79.7922 53.0687 79.4018C53.6141 79.0114 54.023 78.4594 54.2377 77.8239L56.0936 72.2562C57.2447 71.8777 58.3674 71.4179 59.4533 70.8804L64.6689 73.5041C65.2688 73.8002 65.9465 73.9007 66.6066 73.7916C67.2666 73.6824 67.8758 73.3692 68.3486 72.8959L72.8923 68.3522C73.3815 67.8906 73.7127 67.2867 73.8391 66.6261C73.9654 65.9656 73.8804 65.282 73.5961 64.6725L70.9723 59.4569C71.5099 58.371 71.9697 57.2482 72.3482 56.0972L77.8198 54.4013C78.4821 54.1786 79.0533 53.7453 79.4462 53.1675C79.8391 52.5897 80.0321 51.8992 79.9956 51.2015V44.802C79.9974 44.1312 79.7882 43.4768 79.3978 42.9314C79.0073 42.3859 78.4554 41.977 77.8198 41.7623Z" fill="#FFC8D1"/>
<path d="M47.9999 60.7989C45.4685 60.7989 42.9939 60.0482 40.8892 58.6418C38.7844 57.2354 37.1439 55.2364 36.1752 52.8977C35.2065 50.559 34.9531 47.9855 35.4469 45.5028C35.9408 43.02 37.1597 40.7395 38.9497 38.9495C40.7397 37.1595 43.0203 35.9406 45.503 35.4467C47.9858 34.9529 50.5593 35.2064 52.898 36.1751C55.2367 37.1438 57.2356 38.7843 58.642 40.8891C60.0484 42.9939 60.799 45.4685 60.799 47.9999C60.799 49.6807 60.468 51.345 59.8248 52.8979C59.1815 54.4507 58.2387 55.8616 57.0502 57.0501C55.8617 58.2386 54.4508 59.1814 52.8979 59.8246C51.3451 60.4678 49.6807 60.7989 47.9999 60.7989Z" fill="#FF2549"/>
</svg>
