<svg width="99" height="31" viewBox="0 0 99 31" fill="none" xmlns="http://www.w3.org/2000/svg">
<path fill-rule="evenodd" clip-rule="evenodd" d="M26.3175 0.345083C25.5354 0.498405 24.8207 0.892101 24.2732 1.47121C23.6662 2.08658 23.3692 2.76265 23.2658 3.74414C23.1625 4.72563 23.4066 5.51727 23.9813 6.09196C24.2893 6.39545 24.4081 6.48327 24.7684 6.66794C25.5336 7.06377 26.7701 7.08572 27.6664 6.72089C28.6995 6.30311 29.5441 5.4456 29.856 4.49575C30.1595 3.56786 30.1466 2.5431 29.8212 1.85283C29.4983 1.17612 28.8009 0.617575 27.9964 0.388992C27.6677 0.293426 26.6933 0.270826 26.3175 0.345083Z" fill="white"/>
<path fill-rule="evenodd" clip-rule="evenodd" d="M68.1134 2.46947C64.7673 2.57989 61.7066 3.67438 59.2354 5.64898C57.0852 7.3724 55.3308 9.91846 54.4203 12.6537C53.497 15.42 53.207 18.8526 53.6732 21.4355C53.9851 23.1679 54.636 24.7377 55.5503 25.982C56.9884 27.9301 59.2225 29.2577 61.9571 29.7917C63.5624 30.1042 65.7262 30.1572 68.3336 29.946C70.1448 29.8007 72.5308 29.3481 74.0501 28.8599L74.5118 28.7101L74.5467 28.4944C74.5641 28.3718 74.6758 27.4613 74.7972 26.4721C74.9186 25.4828 75.0555 24.3612 75.1052 23.9873C75.1885 23.3416 75.3777 21.7887 75.831 18.0952C75.9408 17.1912 76.0596 16.2529 76.0893 16.0153L76.1468 15.5885H74.1199C71.9244 15.5885 71.7714 15.6021 71.3097 15.8352C70.9863 15.9958 70.7008 16.2237 70.4726 16.5035C70.2443 16.7834 70.0784 17.1087 69.986 17.4578C69.9511 17.6025 69.8807 18.0687 69.8323 18.491C69.7839 18.9133 69.6431 20.0698 69.5198 21.0635C69.3964 22.0573 69.2473 23.2925 69.1814 23.8117C69.1156 24.3309 69.0523 24.7745 69.0361 24.7919C69.02 24.8093 68.7992 24.8623 68.548 24.9023C67.8493 25.0076 65.1709 25.0076 64.5949 24.8978C62.2057 24.4458 60.6199 22.9981 59.9825 20.6722C59.754 19.8367 59.6965 19.2956 59.6965 18.0074C59.6965 16.9213 59.71 16.7159 59.8198 16.0056C60.1188 14.0039 60.6857 12.3999 61.5478 11.0898C62.9858 8.90856 64.9294 7.87089 67.9681 7.66426C70.099 7.5235 72.1582 7.93675 74.2161 8.93051C74.5389 9.08484 74.8101 9.21204 74.823 9.21204C74.9418 9.00829 75.0495 8.79835 75.1459 8.58311C75.5592 7.7256 76.6956 5.37326 76.9707 4.81471L77.1334 4.49185L77.0327 4.41308C76.8041 4.2368 75.483 3.62143 74.9309 3.43223C73.4489 2.94695 71.9128 2.64572 70.3573 2.53533C69.5204 2.47593 68.5932 2.45204 68.1134 2.46947Z" fill="#E73051"/>
<path fill-rule="evenodd" clip-rule="evenodd" d="M7.21136 2.92276C5.71201 3.04157 3.32415 3.36701 3.22729 3.46322C3.20986 3.4813 3.13948 3.94299 3.07361 4.49249C3.00775 5.042 2.91089 5.82073 2.85794 6.22043C2.76173 7.00304 2.61644 8.12465 2.55898 8.60958C2.5402 8.71393 2.53434 8.8202 2.54154 8.92598C2.5551 8.93955 3.90465 8.94794 5.54477 8.94794H8.52217L8.56995 8.60506C8.59643 8.42039 8.63452 8.07751 8.66229 7.84893C8.76367 6.9036 8.79918 6.73636 8.93091 6.60915C8.98992 6.5421 9.07209 6.49985 9.16096 6.49086C9.24982 6.48188 9.3388 6.50684 9.41003 6.56072C9.56823 6.6705 15.3158 11.4637 15.3597 11.5205C15.396 11.5744 15.4175 11.6368 15.4221 11.7016C15.4268 11.7664 15.4144 11.8313 15.3861 11.8898C15.3506 11.9544 14.7662 12.387 14.0715 12.8707C13.3767 13.3543 12.6948 13.8205 12.5456 13.9258C12.3965 14.031 12.1408 14.2028 11.9826 14.3132C11.8244 14.4236 11.5648 14.5986 11.4111 14.7084C11.2574 14.8181 10.9978 14.9944 10.839 15.1042C10.6802 15.214 10.4212 15.3903 10.2675 15.5C9.90723 15.7506 9.59923 15.9617 8.7288 16.5596C8.12635 16.9774 8.00753 17.0433 7.87581 17.0304C7.83036 17.0278 7.786 17.0155 7.74576 16.9942C7.70553 16.9729 7.67037 16.9432 7.6427 16.907C7.56328 16.8018 7.56328 16.7708 7.62914 16.2039C7.70405 15.5581 7.77443 15.0209 7.8093 14.8272L7.83577 14.7084H5.7514C4.48515 14.7084 3.59277 14.7303 3.47396 14.7568C3.20146 14.8214 2.70426 15.0648 2.4492 15.2624C2.09729 15.5355 1.71502 16.1115 1.61365 16.5157C1.5833 16.63 1.43349 17.6942 1.38506 18.1384C1.37215 18.2676 1.32049 18.675 1.27529 19.0424C1.18295 19.7527 1.09062 20.5153 0.879466 22.2523C0.804563 22.8547 0.707706 23.6638 0.659277 24.0422C0.530134 25.0579 0.413258 25.9987 0.286052 27.0454C0.22148 27.551 0.136246 28.2678 0.0878175 28.6287C0.0393888 28.9897 0 29.3539 0 29.4333V29.5741H5.92768L5.95415 29.4288C5.96707 29.3539 6.01098 29.0284 6.04649 28.7185C6.08201 28.4085 6.1427 27.9184 6.17563 27.6408C6.20857 27.3631 6.33835 26.3222 6.46169 25.3323C6.58502 24.3425 6.71997 23.2222 6.76905 22.8483C6.81812 22.4744 6.88334 21.9068 6.92337 21.5949C6.96341 21.2831 7.00215 20.9789 7.01571 20.9221C7.03315 20.8252 7.03767 20.8252 7.88162 20.8252C10.6582 20.8207 12.4152 20.5024 14.0908 19.6823C16.2275 18.644 17.5338 17.1272 18.3429 14.7568C18.8485 13.2755 19.1035 11.6309 19.099 9.87648C19.099 8.43395 18.9628 7.60743 18.554 6.63111C17.6655 4.50735 15.5837 3.26692 12.3758 2.946C11.2833 2.83042 8.46922 2.82138 7.21136 2.92276Z" fill="white"/>
<path fill-rule="evenodd" clip-rule="evenodd" d="M88.7589 9.03901C84.5108 9.67246 81.1518 12.575 79.7312 16.8399C78.5308 20.4456 78.8956 24.3502 80.6636 26.8175C81.9473 28.6029 83.816 29.68 86.2303 30.0145C86.8237 30.0932 87.0484 30.1023 87.9673 30.0849C88.715 30.0668 89.1851 30.0364 89.5726 29.9744C91.819 29.6141 93.7148 28.6772 95.3459 27.112C97.6414 24.9165 99 21.4439 99 17.7852C99 16.787 98.9354 16.189 98.754 15.367C97.9578 11.8317 95.4912 9.56268 91.881 9.03513C91.0454 8.91632 89.5861 8.91632 88.7589 9.03901ZM90.6961 13.9161C91.923 14.228 92.732 15.1559 93.0439 16.6158C93.2376 17.5082 93.2506 18.4096 93.084 19.632C92.745 22.1961 91.6724 24.0694 90.1066 24.8429C89.5745 25.1012 89.0469 25.2168 88.3438 25.2168C87.2835 25.2168 86.6416 24.9792 86.0263 24.3638C85.635 23.968 85.4103 23.6161 85.1868 23.0078C84.6154 21.4955 84.791 18.7822 85.5781 16.9045C86.251 15.3044 87.2887 14.3016 88.6518 13.9406C89.2116 13.7928 90.1673 13.7799 90.698 13.9161H90.6961Z" fill="#E73051"/>
<path fill-rule="evenodd" clip-rule="evenodd" d="M41.0702 9.01705C39.461 9.10099 38.907 9.14619 38.1683 9.23724C36.6509 9.42643 35.0372 9.71636 34.655 9.87068C34.1959 10.0592 33.8037 10.3808 33.5288 10.7941C33.1995 11.2906 33.1685 11.4094 32.9793 13.0147C32.9309 13.4234 32.7211 15.1249 32.5177 16.796C32.3143 18.4671 32.034 20.7187 31.8978 21.8087C31.7615 22.8987 31.4974 25.0586 31.3043 26.6109C31.1113 28.1632 30.955 29.4669 30.955 29.5043C30.955 29.5612 31.2624 29.5689 33.791 29.5689C35.8928 29.5689 36.627 29.5554 36.627 29.5205C36.627 29.4856 36.7374 28.5836 36.8691 27.5065C37.1197 25.4835 37.4102 23.1227 37.6388 21.2799C37.9817 18.4742 38.395 15.1501 38.4608 14.629C38.5267 14.1079 38.5448 14.044 38.6235 14.0265C38.98 13.9516 40.2591 13.8593 40.9585 13.8548C41.6752 13.8548 41.8515 13.8683 42.1853 13.9516C43.9288 14.3868 44.3356 15.6886 43.8829 19.3472C43.8345 19.7347 43.6362 21.3257 43.4432 22.887C43.2501 24.4484 42.9944 26.5321 42.8756 27.5259C42.7568 28.5196 42.6425 29.3817 42.6296 29.452L42.6076 29.5709L45.4527 29.5618L48.2977 29.5489L48.4165 28.5597C48.4811 28.014 48.5702 27.3328 48.6057 27.0422C48.6412 26.7517 48.7348 26.0175 48.8078 25.415C48.8808 24.8126 48.9705 24.0874 49.0054 23.8104C49.0402 23.5334 49.17 22.4932 49.2934 21.5013C49.4167 20.5095 49.5439 19.4609 49.5833 19.1703C49.7505 17.8821 49.7861 17.4779 49.808 16.4622C49.8345 15.3057 49.7944 14.6587 49.6408 13.8941C49.3179 12.2889 48.5108 11.0226 47.3013 10.2355C46.811 9.93876 46.2917 9.69255 45.7516 9.50069C45.115 9.30553 44.4611 9.17169 43.799 9.10099C43.203 9.03513 41.6093 8.9867 41.0702 9.01705Z" fill="white"/>
<path fill-rule="evenodd" clip-rule="evenodd" d="M24.6509 9.52328C24.0575 9.6634 23.3976 10.2174 23.0902 10.838L22.9055 11.2118L22.7073 12.7945C22.4258 15.081 22.2766 16.2775 22.0525 18.1152C21.9421 19.0076 21.7135 20.8588 21.5463 22.2265C21.379 23.5941 21.1111 25.7579 20.9529 27.0416C20.7947 28.3253 20.6584 29.4165 20.6494 29.4688L20.6365 29.5702H26.3188L26.4421 28.5674C26.5067 28.0179 26.6836 26.6109 26.8295 25.437C26.9755 24.2631 27.1595 22.7411 27.2473 22.0508C27.432 20.5205 27.74 18.0403 28.1177 14.9712C28.2766 13.7004 28.4832 12.0074 28.584 11.2118C28.6847 10.4163 28.7686 9.6944 28.7822 9.61562L28.8087 9.47485L26.8166 9.47873C25.7196 9.48325 24.7478 9.50068 24.6509 9.52328Z" fill="white"/>
</svg>
