<svg width="96" height="96" viewBox="0 0 96 96" fill="none" xmlns="http://www.w3.org/2000/svg">
<path d="M85.83 22.84C84.8848 20.7956 83.3938 19.0678 81.53 17.8572C79.6663 16.6466 77.5061 16.0026 75.3 16H20.7C18.4939 16.0026 16.3337 16.6466 14.47 17.8572C12.6062 19.0678 11.1153 20.7956 10.17 22.84C9.40347 24.4467 9.00337 26.2112 9 28V68C9.00926 71.1797 10.2449 74.2264 12.4371 76.4748C14.6293 78.7232 17.5998 79.9905 20.7 80H75.3C78.4002 79.9905 81.3708 78.7232 83.5629 76.4748C85.7551 74.2264 86.9907 71.1797 87 68V28C86.9966 26.2112 86.5965 24.4467 85.83 22.84Z" fill="#FFC8D1"/>
<path d="M85.83 22.84L56.268 53.16C55.1833 54.2756 53.8947 55.1607 52.4759 55.7646C51.0571 56.3685 49.5361 56.6794 48 56.6794C46.4639 56.6794 44.9429 56.3685 43.5241 55.7646C42.1054 55.1607 40.8167 54.2756 39.732 53.16L10.17 22.84C11.1153 20.7956 12.6062 19.0678 14.47 17.8572C16.3337 16.6466 18.4939 16.0026 20.7 16H75.3C77.5061 16.0026 79.6663 16.6466 81.53 17.8572C83.3938 19.0678 84.8848 20.7956 85.83 22.84Z" fill="#FF2549"/>
</svg>
