<svg width="96" height="96" viewBox="0 0 96 96" fill="none" xmlns="http://www.w3.org/2000/svg">
<path d="M63.3834 18.3384C60.9072 18.1307 58.3612 18.7703 56.2259 20.3011L19.7669 46.4374C15.4558 49.528 14.7202 55.8147 18.209 59.8163L33.2671 77.101C36.7566 81.1033 43.2 80.9367 46.4739 76.7542L75.3712 39.81C78.6218 35.6579 78.2767 29.6481 74.5563 25.9143L70.1236 21.4656C68.2681 19.6033 65.8595 18.5461 63.3834 18.3384Z" fill="#FFC8D1"/>
<path d="M76.5535 16.0014C75.6997 16.0277 74.8885 16.3816 74.2869 16.9901L64.284 27.0291C63.9726 27.3404 63.7254 27.7103 63.5568 28.1177C63.3881 28.525 63.3013 28.9618 63.3013 29.4029C63.3013 29.844 63.3881 30.2808 63.5568 30.6882C63.7254 31.0955 63.9726 31.4654 64.284 31.7767C64.5942 32.0893 64.9627 32.3373 65.3686 32.5066C65.7745 32.6758 66.2097 32.763 66.6492 32.763C67.0888 32.763 67.524 32.6758 67.9299 32.5066C68.3358 32.3373 68.7043 32.0893 69.0144 31.7767L79.0173 21.7376C79.3287 21.4264 79.5759 21.0565 79.7446 20.6491C79.9132 20.2418 80 19.805 80 19.3639C80 18.9228 79.9132 18.486 79.7446 18.0786C79.5759 17.6713 79.3287 17.3014 79.0173 16.9901C78.6958 16.665 78.3113 16.4095 77.8875 16.2394C77.4637 16.0694 77.0097 15.9883 76.5535 16.0014Z" fill="#FF2549"/>
<path d="M55.2577 65.5123C46.2304 68.1693 37.1586 70.1381 28.2773 71.3676L33.264 77.092C36.7534 81.0943 43.1968 80.9277 46.4707 76.7452L55.2577 65.5123Z" fill="#FF2549"/>
</svg>
