<svg width="96" height="96" viewBox="0 0 96 96" fill="none" xmlns="http://www.w3.org/2000/svg">
<path d="M80 16H16V65.2472H80V16Z" fill="#FF2549"/>
<path d="M80 16H16V17.5874H80V16Z" fill="#FFC8D1"/>
<path d="M70.2866 21.2284H25.7134C25.7134 23.4583 23.9118 25.2599 21.6819 25.2599V56C23.9118 56 25.7134 57.8016 25.7134 60.0315H70.2866C70.2866 57.8016 72.0882 56 74.3181 56V25.2599C72.0882 25.2473 70.2866 23.4457 70.2866 21.2284Z" fill="#FFC8D1"/>
<path d="M66.822 27.9559H29.178V31.4709H66.822V27.9559Z" fill="#FF2549"/>
<path d="M66.822 36.0945H29.178V39.6094H66.822V36.0945Z" fill="#FF2549"/>
<path d="M44.3339 44.2456H29.178V47.7606H44.3339V44.2456Z" fill="#FF2549"/>
<path d="M64.0882 80L58.8472 75.452L53.6063 80V61.7323H64.0882V80Z" fill="#FF667F"/>
<path d="M58.8472 66.6079C65.3599 66.6079 70.6394 61.3284 70.6394 54.8158C70.6394 48.3032 65.3599 43.0237 58.8472 43.0237C52.3346 43.0237 47.0551 48.3032 47.0551 54.8158C47.0551 61.3284 52.3346 66.6079 58.8472 66.6079Z" fill="#FF4160"/>
<path d="M58.8472 63.1685C63.4603 63.1685 67.2 59.4289 67.2 54.8158C67.2 50.2027 63.4603 46.463 58.8472 46.463C54.2341 46.463 50.4945 50.2027 50.4945 54.8158C50.4945 59.4289 54.2341 63.1685 58.8472 63.1685Z" fill="#FFC8D1"/>
<path d="M58.8472 61.5055C62.5419 61.5055 65.537 58.5104 65.537 54.8157C65.537 51.1211 62.5419 48.126 58.8472 48.126C55.1526 48.126 52.1575 51.1211 52.1575 54.8157C52.1575 58.5104 55.1526 61.5055 58.8472 61.5055Z" fill="#FF2549"/>
</svg>
