<svg width="120" height="120" viewBox="0 0 120 120" fill="none" xmlns="http://www.w3.org/2000/svg">
<circle cx="60" cy="60" r="51" fill="#FF2549" fill-opacity="0.5"/>
<circle cx="60" cy="60" r="60" fill="#FF2549" fill-opacity="0.5"/>
<circle cx="60" cy="60" r="41" fill="#FF2549"/>
<path fill-rule="evenodd" clip-rule="evenodd" d="M69.3455 71.6326L69.3467 71.6296L69.3771 71.5535L74.625 45.0951V45.0092C74.625 44.35 74.3814 43.7745 73.8514 43.4292C73.3875 43.1271 72.8541 43.1056 72.4801 43.134C72.0846 43.164 71.7116 43.2627 71.4535 43.3449C71.3206 43.3872 71.2095 43.4279 71.13 43.4587C71.0901 43.4742 71.0577 43.4873 71.0342 43.4971L71.0111 43.5068L41.7514 54.9849L41.7434 54.9878C41.7275 54.9936 41.7066 55.0014 41.6814 55.0112C41.6311 55.0308 41.5626 55.0588 41.4821 55.0953C41.3241 55.1669 41.1058 55.2774 40.8845 55.429C40.5085 55.6865 39.7925 56.296 39.9134 57.2624C40.0136 58.0629 40.5653 58.5713 40.9373 58.8345C41.1367 58.9756 41.3275 59.0773 41.4672 59.1438C41.538 59.1775 41.5981 59.2033 41.6429 59.2216C41.6654 59.2307 41.6841 59.238 41.6986 59.2435L41.7172 59.2505L41.7291 59.2549L46.8483 60.9783C46.831 61.2995 46.8629 61.627 46.9481 61.9501L49.5123 71.6773C49.8163 72.8306 50.8597 73.634 52.0525 73.6332C53.1216 73.6324 54.0698 72.9856 54.4726 72.0206L58.4761 67.74L65.3518 73.0114L65.4496 73.0541C66.0743 73.3267 66.6579 73.413 67.1915 73.3401C67.7244 73.2673 68.1478 73.0439 68.4659 72.7894C68.7789 72.539 68.9934 72.2563 69.1283 72.0436C69.1969 71.9355 69.248 71.8404 69.2834 71.7689C69.3012 71.733 69.3152 71.7026 69.3257 71.6789L69.3389 71.6485L69.3436 71.6372L69.3455 71.6326ZM49.4863 61.2809C49.428 61.0598 49.5195 60.8265 49.7125 60.7039L67.076 49.6773C67.076 49.6773 68.0973 49.0573 68.0608 49.6773C68.0608 49.6773 68.243 49.7868 67.6958 50.2973C67.1767 50.7822 55.3203 62.2291 54.1206 63.3874C54.0514 63.4542 54.0101 63.5309 53.9857 63.624L52.0505 71.0081L49.4863 61.2809Z" fill="white"/>
</svg>
