<svg width="36" height="31" viewBox="0 0 36 31" fill="none" xmlns="http://www.w3.org/2000/svg">
<path fill-rule="evenodd" clip-rule="evenodd" d="M30.3455 28.6326L30.3467 28.6296L30.3771 28.5535L35.625 2.09512V2.00919C35.625 1.34996 35.3814 0.774453 34.8514 0.429249C34.3875 0.127091 33.8541 0.105572 33.4801 0.133958C33.0846 0.163979 32.7116 0.262706 32.4535 0.344887C32.3206 0.387166 32.2095 0.427904 32.13 0.458715C32.0901 0.474179 32.0577 0.487301 32.0342 0.497078L32.0111 0.506803L2.7514 11.9849L2.74335 11.9878C2.72755 11.9936 2.70665 12.0014 2.68141 12.0112C2.63109 12.0308 2.56259 12.0588 2.48213 12.0953C2.32414 12.1669 2.10585 12.2774 1.88447 12.429C1.50848 12.6865 0.792527 13.296 0.913421 14.2624C1.01356 15.0629 1.56534 15.5713 1.93733 15.8345C2.13674 15.9756 2.32752 16.0773 2.46722 16.1438C2.538 16.1775 2.59813 16.2033 2.6429 16.2216C2.66535 16.2307 2.68412 16.238 2.69865 16.2435L2.71724 16.2505L2.72913 16.2549L7.8483 17.9783C7.83102 18.2995 7.86288 18.627 7.94805 18.9501L10.5123 28.6773C10.8163 29.8306 11.8597 30.634 13.0525 30.6332C14.1216 30.6324 15.0698 29.9856 15.4726 29.0206L19.4761 24.74L26.3518 30.0114L26.4496 30.0541C27.0743 30.3267 27.6579 30.413 28.1915 30.3401C28.7244 30.2673 29.1478 30.0439 29.4659 29.7894C29.7789 29.539 29.9934 29.2563 30.1283 29.0436C30.1969 28.9355 30.248 28.8404 30.2834 28.7689C30.3012 28.733 30.3152 28.7026 30.3257 28.6789L30.3389 28.6485L30.3436 28.6372L30.3455 28.6326ZM10.4863 18.2809C10.428 18.0598 10.5195 17.8265 10.7125 17.7039L28.076 6.67731C28.076 6.67731 29.0973 6.05729 29.0608 6.67731C29.0608 6.67731 29.243 6.78681 28.6958 7.29733C28.1767 7.78221 16.3203 19.2291 15.1206 20.3874C15.0514 20.4542 15.0101 20.5309 14.9857 20.624L13.0505 28.0081L10.4863 18.2809Z" fill="white"/>
</svg>
