<svg width="96" height="96" viewBox="0 0 96 96" fill="none" xmlns="http://www.w3.org/2000/svg">
<path d="M56 18H40C37.6 18 36 16.4 36 14C36 11.6 37.6 10 40 10H56C58.4 10 60 11.6 60 14C60 16.4 58.4 18 56 18Z" fill="#FF2549"/>
<path d="M48 58C45.6 58 44 56.4 44 54V42C44 39.6 45.6 38 48 38C50.4 38 52 39.6 52 42V54C52 56.4 50.4 58 48 58Z" fill="#121212"/>
<path d="M48 22C30.4 22 16 36.4 16 54C16 71.6 30.4 86 48 86C65.6 86 80 71.6 80 54C80 36.4 65.6 22 48 22ZM52 54C52 56.4 50.4 58 48 58C45.6 58 44 56.4 44 54V42C44 39.6 45.6 38 48 38C50.4 38 52 39.6 52 42V54Z" fill="#FFC8D1"/>
<path d="M22.8 34.4C24.4 32.4 26.4 30.4 28.4 28.8L24.8 25.2C23.2 23.6 20.8 23.6 19.2 25.2C17.6 26.8 17.6 29.2 19.2 30.8L22.8 34.4ZM73.2 34.4L76.8 30.8C78.4 29.2 78.4 26.8 76.8 25.2C75.2 23.6 72.8 23.6 71.2 25.2L67.6 28.8C69.6 30.4 71.6 32.4 73.2 34.4Z" fill="#FF2549"/>
<path d="M48 60C51.3137 60 54 57.3137 54 54C54 50.6863 51.3137 48 48 48C44.6863 48 42 50.6863 42 54C42 57.3137 44.6863 60 48 60Z" fill="#FF2549"/>
</svg>
